<svg xmlns="http://www.w3.org/2000/svg" viewBox="0 0 109.25 80"><path d="M20.73 0c1.17.22 2.35.37 3.5.67 3.31.84 6.12 2.55 8.53 4.95.06.06.11.14.18.24-1.69 2.21-3.37 4.4-5.08 6.64-.97-1.22-2-2.26-3.31-2.99-2.68-1.5-5.49-1.7-8.35-.71-2.92 1-4.4 4.93-2.93 7.52.47.83 1.14 1.49 1.99 1.88 2 .89 4.01 1.75 6.05 2.53 2.29.89 4.58 1.76 6.73 2.98 3.31 1.87 5.48 4.62 6.3 8.34.79 3.56.62 7.09-.74 10.5-1.64 4.1-4.6 7.01-8.7 8.54-6.02 2.25-11.99 1.93-17.68-1.19C4.23 48.26 1.94 45.83.01 43c2.11-2.01 4.2-4.01 6.34-6.05.31.51.57 1.01.89 1.46 2.82 4 6.71 5.69 11.51 5.03 2.63-.36 4.66-1.82 5.56-4.42 1.03-2.94.14-6.01-2.68-7.7-2.01-1.21-4.19-2.03-6.4-2.79-2.46-.85-4.87-1.81-7.05-3.26-3.86-2.56-5.66-6.18-5.54-10.78.16-5.73 2.65-10.07 7.73-12.81C12.11.74 14.03.33 15.99.11c.19-.02.38-.07.57-.11h4.17zm22.69 51.29V1.12c.18-.01.34-.03.49-.03 4.68 0 9.36-.04 14.05.03 3.64.05 7.27.35 10.75 1.51 5.98 2 10.36 5.89 13.26 11.46 2.26 4.34 3.05 8.99 2.8 13.85-.2 3.88-1.09 7.56-3.01 10.96-1.63 2.9-3.85 5.27-6.52 7.24-2.52 1.85-5.24 3.3-8.28 4.08-2.68.69-5.43 1.01-8.19 1.05-4.97.06-9.93.05-14.9.06-.14 0-.28-.02-.45-.04zm9.74-41.77V41.5c0 1.44 0 1.42 1.45 1.44 3.23.04 6.44-.12 9.54-1.16 3-1 5.59-2.62 7.39-5.26 3.6-5.29 4.13-10.99 1.95-16.94-1.19-3.25-3.24-5.87-6.27-7.64-1.87-1.09-3.91-1.69-6.03-2.06-2.63-.45-5.28-.37-8.03-.36zM93.7 39.67c-.55-.9-1.18-1.7-1.55-2.6-1.14-2.82.54-5.91 3.52-6.57 1.74-.39 3.46-.32 5 .68 2.85 1.86 2.87 5.8.06 7.91-.5.37-1.03.69-1.6 1.08 1.11 1.27 2.2 2.53 3.37 3.86.86-.94 1.69-1.83 2.52-2.74.7.74 1.42 1.5 2.19 2.33-.77.85-1.62 1.8-2.53 2.81 1.31 1.49 2.64 3 4.06 4.62-1.14 0-2.16-.1-3.15.02-1.28.16-2.18-.27-2.85-1.33-.21-.34-.53-.62-.83-.95-.46.34-.88.68-1.33.99-2.14 1.47-4.48 2.09-7.04 1.51-2.43-.55-3.94-2.11-4.42-4.53-.49-2.47.53-4.38 2.54-5.79.67-.49 1.4-.9 2.04-1.3zm2.14 2.17c-.93.51-1.76 1.05-2.36 1.88-1.13 1.57-.46 3.58 1.38 4.16 1.58.49 3.71-.24 4.78-1.67-1.25-1.43-2.51-2.88-3.8-4.37zm1.41-3.68c.68-.6 1.33-1.08 1.84-1.67.71-.83.6-2.11-.12-2.83-.64-.64-1.95-.72-2.72-.15-.82.6-1.03 1.65-.43 2.67.39.65.89 1.24 1.43 1.98zM.46 59.44h3.69v1.57c.11-.03.17-.02.2-.05 1.52-1.9 3.54-2.29 5.77-1.79 2.91.65 4.72 2.9 4.99 6.16.23 2.77-.54 5.17-2.9 6.83-2.57 1.81-5.61 1.44-8.01-.97V80H.46V59.44zm10.81 6.69c.01-2.2-1.56-3.82-3.72-3.83-2.13-.01-3.72 1.61-3.74 3.82-.01 2.18 1.59 3.83 3.73 3.83 2.13.01 3.72-1.62 3.73-3.82zm17.11-5.26c0-.3-.02-.7.01-1.1.01-.13.17-.34.27-.34 1.13-.02 2.27-.02 3.44-.02V72.8h-3.72v-1.54c-.74.74-1.46 1.39-2.42 1.7-2.65.87-5.53-.12-7.25-2.5-2.27-3.13-1.59-7.99 1.44-10.28 2.11-1.59 5.45-1.63 7.27-.1.33.28.65.54.96.79zm.37 5.25c-.01-2.2-1.6-3.82-3.74-3.82s-3.74 1.63-3.74 3.83c0 2.19 1.6 3.82 3.74 3.83 2.13 0 3.75-1.67 3.74-3.84zm56.47.65h-9.97c-.27 1.77 1.05 3.38 2.86 3.53 1.39.11 2.56-.29 3.4-1.47.08-.12.29-.23.42-.22 1.04.14 2.07.32 3.17.5-.1.23-.16.41-.25.57-1.14 2.08-2.86 3.31-5.25 3.54-2.79.26-5.25-.39-7-2.74-1.29-1.73-1.53-3.72-1.18-5.8.55-3.35 3.09-5.55 6.49-5.68 1.73-.06 3.38.21 4.79 1.31 1.55 1.2 2.23 2.86 2.45 4.75.05.53.04 1.08.07 1.71zm-3.61-2.44c-.09-1.51-1.47-2.69-3.12-2.7-1.62-.01-3.04 1.2-3.14 2.7h6.26zm-13.37 8.48h-3.69v-.64c0-2.24.01-4.49-.01-6.73 0-.42-.04-.86-.12-1.27-.23-1.19-.87-1.79-2.01-1.96-1.19-.17-2.37.32-2.77 1.35-.31.79-.48 1.68-.51 2.53-.07 2.03-.02 4.06-.02 6.09v.62h-3.72V59.46h3.71v1.52c.04.02.08.03.12.05.12-.14.24-.27.36-.41 1.91-2.19 5.77-2.23 7.62-.08.69.8 1.03 1.77 1.05 2.8.06 3.08.04 6.16.05 9.24-.01.07-.04.14-.06.23zm38.45-10.24c-.77-.65-1.58-.95-2.52-.85-.66.07-1.04.37-1.13.87-.09.52.13.96.73 1.22.55.24 1.14.39 1.71.61.56.22 1.14.42 1.67.7 1.9 1.01 2.6 3 1.77 5-.64 1.54-1.81 2.47-3.39 2.91-2.52.69-5.45-.15-6.98-2.02.63-.73 1.26-1.46 1.85-2.14.63.42 1.18.88 1.81 1.18.8.37 1.66.43 2.46-.05.87-.52.92-1.63.09-2.21-.3-.21-.67-.32-1.01-.48-.87-.4-1.79-.71-2.6-1.2-1.4-.85-1.96-2.18-1.71-3.79.26-1.61 1.21-2.67 2.8-3.08 2.04-.53 3.99-.31 5.8.81.15.09.29.2.49.34-.63.74-1.22 1.44-1.84 2.18zm-59.68.06h-1.46v-3.22h1.43v-4.56h3.74v4.55h2.59v3.21h-2.55v10.18h-3.75V62.63zm49.96 0c-.66-.12-1.25-.31-1.83-.32-1.82-.02-3.03 1.1-3.14 3.01-.1 1.83-.05 3.67-.07 5.5-.01.65 0 1.31 0 1.99h-3.74V59.46h3.73v1.72c.04.01.08.02.11.03.16-.22.32-.44.49-.65 1.06-1.36 2.93-1.93 4.56-1.37.14.05.33.29.31.42-.12 1.03-.28 2.04-.42 3.02zm-61.13-3.19h3.69v1.77c.03.01.07.03.1.04.08-.1.16-.19.22-.29 1.03-1.62 3-2.36 4.78-1.81.29.09.44.19.38.55-.17.98-.28 1.97-.42 3.01-.16-.06-.29-.09-.41-.14-2.14-.89-4.19.25-4.54 2.52-.07.47-.1.96-.1 1.44-.01 1.89 0 3.77 0 5.66v.61h-3.7V59.44z" fill="#f6f6f5"/></svg>