<svg xmlns="http://www.w3.org/2000/svg" viewBox="0 0 107.22 170.5"><path d="M90.12 14.21C80.05 4.76 66.83.02 53.61 0 40.39.02 27.17 4.76 17.1 14.21 4.75 25.79 0 40.28 0 55.74c0 51.07 51.88 112.71 53.61 114.76 1.73-2.05 53.61-63.69 53.61-114.76 0-15.46-4.75-29.95-17.1-41.53z" fill="#2b2b29"/><path d="M57.33 25.06c1.31.24 2.63.42 3.92.75 3.7.94 6.84 2.86 9.54 5.54.07.07.12.15.2.27-1.89 2.47-3.77 4.93-5.68 7.43-1.08-1.37-2.24-2.53-3.71-3.35-2.99-1.67-6.14-1.9-9.34-.8-3.26 1.12-4.92 5.52-3.27 8.42.53.92 1.27 1.67 2.23 2.1 2.23.99 4.48 1.95 6.76 2.83 2.56.99 5.12 1.97 7.52 3.33 3.7 2.09 6.13 5.17 7.04 9.33.88 3.98.69 7.93-.83 11.74-1.83 4.59-5.14 7.84-9.73 9.55-6.74 2.51-13.41 2.16-19.77-1.34-3.35-1.84-5.9-4.55-8.07-7.72 2.36-2.25 4.7-4.49 7.1-6.77.35.57.64 1.13 1 1.63 3.15 4.47 7.5 6.37 12.88 5.63 2.95-.4 5.21-2.04 6.22-4.94 1.15-3.29.15-6.72-2.99-8.62-2.25-1.36-4.69-2.27-7.16-3.12-2.75-.95-5.45-2.02-7.89-3.64-4.31-2.86-6.33-6.91-6.19-12.05.17-6.4 2.95-11.25 8.63-14.32 1.95-1.05 4.1-1.51 6.29-1.76.21-.02.42-.08.64-.12h4.66z" fill="#f6f6f5"/></svg>